<?xml version="1.0" encoding="UTF-8" standalone="no"?><svg width="960" height="960" xmlns="http://www.w3.org/2000/svg" stroke-linejoin="round" stroke-linecap="round" fill-rule="evenodd" fill="none"><rect x="0" y="0" width="960" height="960" fill="#000000"/><g transform="translate(480 527.531) rotate(-90 0 0)"><path d=" M 0,0"/><g><path d=" M 0,0"/><path d=" M 100,100 Q 58.579,100 29.289,70.711 Q 0,41.421 0,0 Q 0,-41.421 29.289,-70.711 Q 58.579,-100 100,-100 M 0,0 L 150,0" stroke="#E5F2FF" stroke-width="4"/><g transform="translate(150 0)"><path d=" M 0,0"/><g transform="scale(0.333 0.333)"><path d=" M 0,0"/><path d=" M 0,0 L 133.333,0 Q 0,66.667 0,133.333 M 133.333,133.333 Q 133.333,160.948 113.807,180.474 Q 94.281,200 66.667,200 Q 39.052,200 19.526,180.474 Q 0,160.948 0,133.333" stroke="#E5F2FF" stroke-width="12.012"/></g></g><g transform="translate(100 100)"><path d=" M 0,0"/><g transform="translate(33.3 0) scale(0.333 0.333)"><path d=" M 0,0"/><path d=" M -100,0 L 100,0 M 0,-100 L 0,100" stroke="#E5F2FF" stroke-width="12.012"/></g></g><g transform="translate(100 -100) scale(1 -1)"><path d=" M 0,0"/><g transform="translate(33.3 0) scale(0.333 0.333)"><path d=" M 0,0"/><path d=" M -100,0 L 100,0 M 0,-100 L 0,100" stroke="#E5F2FF" stroke-width="12.012"/></g></g><g transform="rotate(180 0 0)"><path d=" M 0,0"/><g transform="translate(50 0) scale(0.5 0.5)"><path d=" M 0,0"/><path d=" M -100,0 L 100,0" stroke="#E5F2FF" stroke-width="8"/></g></g></g></g></svg>